<?xml version="1.0" encoding="UTF-8" standalone="no"?>
<!-- Created with Inkscape (http://www.inkscape.org/) -->

<svg
   width="31mm"
   height="31mm"
   viewBox="0 0 31 31"
   version="1.1"
   id="svg1"
   xmlns="http://www.w3.org/2000/svg"
   xmlns:svg="http://www.w3.org/2000/svg">
  <defs
     id="defs1" />
  <g
     id="layer1">
    <g
       id="g11-98-1"
       transform="matrix(0.19486221,0,0,0.19486221,53.300639,392.72073)"
       style="fill:#233e4a;fill-opacity:1">
      <path
         d="m -252.43271,-2167.1763 c 4.5328,1.138 8.65898,3.1452 12.72379,5.2562 4.17409,2.1728 7.90539,4.3963 11.77061,7.6824 3.86522,3.2861 6.61839,6.0757 9.37174,9.7417 2.75334,3.666 4.76284,8.314 7.18934,12.2086 -0.92656,-5.4771 -2.51219,-10.7297 -4.88566,-16.2374 6.6316,3.4643 11.8381,7.8087 17.46292,14.3671 -3.78661,-9.6812 -7.94624,-16.1865 -14.56427,-22.9026 14.65191,3.9786 19.28176,7.4465 24.01736,11.2507 -4.91435,-8.5883 -10.97095,-16.9184 -20.93692,-20.6874 -13.9351,-4.7891 -27.99932,-4.548 -42.14891,-0.6793 z"
         style="display:none;fill:#ffffff;fill-opacity:1;stroke-width:0px"
         id="path1-9-0" />
      <path
         class="cls-1"
         d="m -123.64374,-1978.8028 c -35.25399,-60.4728 -125.61098,-52.2052 -150.88313,22.8 -3.11466,-26.5437 10.86536,-48.7756 24.73731,-70.3919 5.79814,-8.8719 11.7465,-17.6618 17.30398,-26.66 6.09755,-9.8697 11.40562,-20.123 15.20964,-30.9601 3.32043,-9.4703 5.35149,-19.1925 5.45889,-29.1882 0.10495,-9.7548 -1.31323,-18.7583 -5.85792,-27.5452 -2.10752,-3.7366 -5.71107,-8.3447 -11.15486,-13.042 -9.88912,-8.5331 -25.15313,-12.8012 -27.55047,-13.3799 4.65045,-1.0557 15.56877,-5.2936 36.95228,-2.635 5.98457,1.1669 11.81427,2.7288 17.49975,4.8212 2.74375,1.0109 5.70185,1.5295 8.39759,2.624 5.882,2.3896 11.8501,4.6738 17.43221,7.5839 15.46209,8.0641 30.08658,17.1444 42.01675,29.6037 15.46757,16.1486 24.74112,34.9442 29.06022,55.9849 3.0606,14.9193 2.91403,29.8584 0.24338,44.813 -2.1726,12.1524 -6.00482,21.3623 -8.61936,27.0362 -2.61451,5.6739 -10.24626,18.5354 -10.24626,18.5354 z m -129.16047,-188.4404 c 4.36976,1.0146 8.34754,2.8041 12.26614,4.6861 4.02396,1.9371 7.62105,3.9194 11.34727,6.8491 3.72618,2.9298 6.38034,5.4167 9.03464,8.6851 2.65432,3.2684 4.59153,7.4123 6.93077,10.8845 -0.89325,-4.883 -2.42185,-9.5659 -4.70994,-14.4762 6.39306,3.0884 11.4123,6.9616 16.83481,12.8088 -3.65041,-8.6313 -7.66043,-14.4309 -14.04042,-20.4186 14.12492,3.5471 18.58824,6.6389 23.1535,10.0305 -4.73757,-7.6569 -10.57634,-15.0835 -20.18386,-18.4437 -13.43389,-4.2697 -26.99225,-4.0547 -40.63291,-0.6056 z"
         id="path1-2-1-1"
         style="display:none;fill:#233e4a;fill-opacity:1;stroke-width:0px" />
      <path
         class="cls-1"
         d="m -257.17086,-1980.073 c 35.7893,-45.451 91.22064,-40.2117 117.51172,-10.9336 20.61354,22.9555 19.9252,69.944 -14.50308,94.7555 38.36693,-70.2678 -34.59085,-123.1107 -103.00864,-83.8219 z"
         id="path2-4-9"
         style="fill:#233e4a;fill-opacity:1;stroke:#ffffff;stroke-width:0;stroke-dasharray:none;stroke-opacity:1" />
      <path
         class="cls-1"
         d="m -181.89857,-1859.8136 c -16.65298,-4.4069 -37.64033,-18.1992 -39.77816,-22.9711 36.60036,14.7075 115.71867,-5.7661 97.03397,-92.5669 19.22494,32.2938 8.95101,110.0422 -57.25581,115.538 z"
         id="path3-7-5"
         style="fill:#00587e;fill-opacity:1;stroke:#ffffff;stroke-width:0;stroke-dasharray:none;stroke-opacity:1" />
      <path
         class="cls-1"
         d="m -148.04276,-1946.1335 c -19.70653,-23.7876 -79.54882,-42.258 -119.07596,-18.3474 3.87962,-5.0455 7.26908,-10.5284 13.23099,-13.7029 37.29201,-19.8564 87.13287,-16.519 105.84497,32.0503 z"
         id="path4-8-9"
         style="fill:#231815;fill-opacity:1;stroke:#ffffff;stroke-width:0;stroke-dasharray:none;stroke-opacity:1" />
      <path
         class="cls-1"
         d="m -191.7861,-1858.359 c -7.13212,1.7659 -23.91886,-0.23 -35.2759,-4.3973 -12.04671,-4.4218 -21.56888,-12.0346 -28.41992,-22.9908 -14.98215,-21.8323 -15.5657,-41.9973 -15.25586,-45.1331 1.22181,4.3318 12.88536,35.4556 32.92797,40.9919 1.17197,0.325 2.13394,0.8224 2.91037,1.7629 11.24985,14.1707 26.87909,22.7603 43.11334,29.7713 z"
         id="path5-4-1"
         style="fill:#3d87a6;fill-opacity:1;stroke:#ffffff;stroke-width:0;stroke-dasharray:none;stroke-opacity:1" />
    </g>
  </g>
</svg>
